<svg xmlns="http://www.w3.org/2000/svg" width="900" height="356" viewBox="0 0 900 356" role="img" aria-label="Oracle DBA core capabilities">
<defs><linearGradient id="line"><stop stop-color="#ff4d3d"/><stop offset=".5" stop-color="#ff8a1f"/><stop offset="1" stop-color="#ffc857"/></linearGradient>
<style>.label{font:700 10px 'Trebuchet MS',sans-serif;fill:#ff8a1f;letter-spacing:1.7px}.skill{font:700 16px 'Trebuchet MS',sans-serif;fill:#fff4e6}.desc{font:12px 'Trebuchet MS',sans-serif;fill:#bda7a2}.tag{font:700 9px 'Trebuchet MS',sans-serif;fill:#fff4e6;letter-spacing:.5px}</style></defs>
<rect width="900" height="356" rx="26" fill="#171012"/><rect x="7" y="7" width="886" height="342" rx="21" fill="#0f0b0c" stroke="#4b2524"/><path d="M29 42h842" stroke="url(#line)"/><text x="31" y="39" class="label">CORE CAPABILITIES</text>
<g transform="translate(31 78)"><rect width="405" height="112" rx="16" fill="#140e0f" stroke="#4d2523"/><rect x="0" y="0" width="4" height="112" rx="2" fill="#ff4d3d"/><text x="22" y="30" class="skill">HIGH AVAILABILITY &amp;</text><text x="22" y="49" class="skill">DISASTER RECOVERY</text><text x="22" y="74" class="desc">Standby, switchover, failover and RAC-based availability</text><g transform="translate(22 82)"><rect width="83" height="22" rx="11" fill="#211315" stroke="#56302c"/><text x="41.5" y="14.5" text-anchor="middle" class="tag">DATA GUARD</text></g><g transform="translate(113 82)"><rect width="68" height="22" rx="11" fill="#211315" stroke="#56302c"/><text x="34" y="14.5" text-anchor="middle" class="tag">RAC</text></g></g>
<g transform="translate(464 78)"><rect width="405" height="112" rx="16" fill="#140e0f" stroke="#4d2523"/><rect x="0" y="0" width="4" height="112" rx="2" fill="#ff8a1f"/><text x="22" y="32" class="skill">BACKUP &amp; RECOVERY</text><text x="22" y="60" class="desc">RMAN backup, restore and recovery workflows</text><g transform="translate(22 82)"><rect width="68" height="22" rx="11" fill="#211315" stroke="#56302c"/><text x="34" y="14.5" text-anchor="middle" class="tag">RMAN</text></g><g transform="translate(98 82)"><rect width="69" height="22" rx="11" fill="#211315" stroke="#56302c"/><text x="34.5" y="14.5" text-anchor="middle" class="tag">RESTORE</text></g></g>
<g transform="translate(31 206)"><rect width="405" height="112" rx="16" fill="#140e0f" stroke="#4d2523"/><rect x="0" y="0" width="4" height="112" rx="2" fill="#ffc857"/><text x="22" y="30" class="skill">PERFORMANCE &amp;</text><text x="22" y="49" class="skill">TROUBLESHOOTING</text><text x="22" y="74" class="desc">Diagnose slow SQL, wait events and database bottlenecks</text><g transform="translate(22 82)"><rect width="88" height="22" rx="11" fill="#211315" stroke="#56302c"/><text x="44" y="14.5" text-anchor="middle" class="tag">SQL TUNING</text></g><g transform="translate(118 82)"><rect width="68" height="22" rx="11" fill="#211315" stroke="#56302c"/><text x="34" y="14.5" text-anchor="middle" class="tag">WAITS</text></g></g>
<g transform="translate(464 206)"><rect width="405" height="112" rx="16" fill="#140e0f" stroke="#4d2523"/><rect x="0" y="0" width="4" height="112" rx="2" fill="#ff4d3d"/><text x="22" y="32" class="skill">OPERATIONS &amp; AUTOMATION</text><text x="22" y="60" class="desc">Oracle administration and PL/SQL operational automation</text><g transform="translate(22 82)"><rect width="68" height="22" rx="11" fill="#211315" stroke="#56302c"/><text x="34" y="14.5" text-anchor="middle" class="tag">ORACLE</text></g><g transform="translate(98 82)"><rect width="68" height="22" rx="11" fill="#211315" stroke="#56302c"/><text x="34" y="14.5" text-anchor="middle" class="tag">PL/SQL</text></g></g>
</svg>